<svg data-v-423bf9ae="" xmlns="http://www.w3.org/2000/svg" viewBox="0 0 416 90" class="iconLeft"><!----><!----><!----><g data-v-423bf9ae="" id="808d4964-c4bc-409d-9989-e8b4c632a1c3" fill="#FFFFFF" transform="matrix(4.285714285714286,0,0,4.285714285714286,104.25714858940671,7.799999475479126)"><path d="M7.35 2.66C6.32 2.66 5.36 2.91 4.45 3.41C3.54 3.91 2.79 4.62 2.21 5.56C1.63 6.49 1.34 7.53 1.34 8.68C1.34 9.88 1.73 10.86 2.51 11.61C3.29 12.36 4.31 12.74 5.57 12.74C6.79 12.74 7.92 12.40 8.96 11.72L9.65 12.60L11.12 12.60L9.86 11.00C11.01 9.87 11.59 8.44 11.59 6.73C11.59 5.53 11.20 4.55 10.42 3.79C9.63 3.04 8.61 2.66 7.35 2.66ZM6.33 8.40L8.27 10.85C7.50 11.36 6.66 11.62 5.77 11.62C4.80 11.62 4.02 11.33 3.43 10.75C2.84 10.17 2.55 9.42 2.55 8.48C2.55 7.60 2.78 6.79 3.24 6.05C3.70 5.32 4.28 4.76 4.98 4.37C5.68 3.98 6.41 3.78 7.15 3.78C8.12 3.78 8.89 4.06 9.49 4.63C10.09 5.19 10.39 5.91 10.39 6.78C10.39 8.09 9.97 9.20 9.14 10.11L7.80 8.40ZM16.80 10.19C16.70 10.63 16.47 10.99 16.12 11.27C15.77 11.55 15.36 11.69 14.90 11.69C14.50 11.69 14.21 11.62 14.02 11.47C13.83 11.33 13.73 11.08 13.73 10.72C13.73 10.66 13.76 10.44 13.82 10.08L14.50 6.16L13.38 6.16L12.67 10.22C12.62 10.50 12.60 10.73 12.60 10.91C12.60 11.50 12.76 11.96 13.08 12.27C13.41 12.58 13.86 12.74 14.43 12.74C15.24 12.74 15.94 12.40 16.53 11.73L16.38 12.60L17.50 12.60L18.63 6.16L17.51 6.16ZM21.21 3.50C21.21 3.71 21.28 3.88 21.43 4.04C21.58 4.19 21.77 4.27 21.98 4.27C22.19 4.27 22.38 4.19 22.53 4.04C22.68 3.88 22.75 3.71 22.75 3.50C22.75 3.29 22.68 3.12 22.53 2.96C22.38 2.81 22.19 2.73 21.98 2.73C21.77 2.73 21.58 2.81 21.43 2.96C21.28 3.12 21.21 3.29 21.21 3.50ZM20.92 6.16L19.78 12.60L20.96 12.60L22.09 6.16ZM24.28 9.93C24.28 9.08 24.54 8.39 25.05 7.87C25.57 7.35 26.19 7.08 26.91 7.08C27.42 7.08 27.87 7.19 28.25 7.41C28.62 7.62 28.86 7.89 28.95 8.20L29.20 6.85C29.04 6.59 28.76 6.39 28.36 6.24C27.97 6.09 27.55 6.02 27.10 6.02C26.00 6.02 25.06 6.39 24.29 7.13C23.52 7.86 23.13 8.81 23.13 9.97C23.13 10.77 23.39 11.43 23.91 11.96C24.42 12.48 25.09 12.74 25.91 12.74C26.37 12.74 26.82 12.67 27.26 12.52C27.70 12.38 28.05 12.18 28.31 11.91L28.55 10.56C28.34 10.87 28.00 11.13 27.54 11.34C27.07 11.55 26.58 11.65 26.07 11.65C25.50 11.65 25.06 11.48 24.75 11.16C24.43 10.83 24.28 10.42 24.28 9.93ZM31.79 1.68L29.86 12.60L30.98 12.60L31.56 9.34L33.64 12.60L35.04 12.60L32.63 8.82L35.90 6.16L34.36 6.16L31.74 8.29L32.91 1.68ZM37.03 9.44L35.91 10.04C36.08 10.85 36.45 11.50 37.02 12.00C37.60 12.49 38.28 12.74 39.07 12.74C40.12 12.74 40.95 12.47 41.55 11.93C42.16 11.40 42.46 10.61 42.46 9.58C42.46 9.21 42.40 8.88 42.28 8.59C42.16 8.29 41.99 8.05 41.77 7.85C41.55 7.66 41.34 7.50 41.14 7.38C40.94 7.27 40.71 7.16 40.45 7.06C39.82 6.81 39.34 6.56 39.00 6.29C38.66 6.03 38.49 5.69 38.49 5.29C38.49 4.80 38.65 4.42 38.99 4.17C39.33 3.92 39.76 3.79 40.29 3.79C40.84 3.79 41.26 3.92 41.53 4.19C41.81 4.45 42.03 4.82 42.20 5.31L43.20 4.76C43.08 4.20 42.78 3.71 42.30 3.29C41.82 2.87 41.21 2.66 40.47 2.66C39.52 2.66 38.75 2.90 38.14 3.39C37.54 3.88 37.24 4.55 37.24 5.39C37.24 6.02 37.44 6.54 37.85 6.95C38.26 7.36 38.72 7.66 39.26 7.87C39.86 8.10 40.34 8.35 40.68 8.62C41.02 8.89 41.19 9.26 41.19 9.72C41.19 10.30 41.01 10.77 40.64 11.11C40.28 11.45 39.80 11.62 39.20 11.62C38.67 11.62 38.22 11.43 37.85 11.05C37.48 10.66 37.21 10.13 37.03 9.44ZM49.55 8.72C49.55 9.58 49.27 10.29 48.73 10.85C48.18 11.41 47.57 11.69 46.89 11.69C46.43 11.69 46.03 11.53 45.70 11.20C45.37 10.87 45.21 10.43 45.21 9.88C45.21 9.76 45.22 9.61 45.23 9.42L45.28 9.18C45.42 8.54 45.72 8.03 46.19 7.64C46.66 7.26 47.17 7.07 47.71 7.07C48.27 7.07 48.72 7.21 49.05 7.48C49.38 7.75 49.55 8.16 49.55 8.72ZM44.13 15.68L44.87 11.48C45.21 12.32 45.86 12.74 46.84 12.74C47.85 12.74 48.75 12.36 49.53 11.60C50.32 10.84 50.71 9.86 50.71 8.67C50.71 7.85 50.46 7.21 49.96 6.73C49.46 6.26 48.82 6.02 48.03 6.02C47.06 6.02 46.26 6.44 45.61 7.28L45.81 6.16L44.69 6.16L43.01 15.68ZM57.57 6.16L57.37 7.31C57.20 6.91 56.95 6.59 56.60 6.36C56.26 6.13 55.86 6.02 55.40 6.02C54.40 6.02 53.51 6.40 52.72 7.16C51.94 7.92 51.55 8.90 51.55 10.09C51.55 10.91 51.80 11.55 52.29 12.03C52.78 12.50 53.42 12.74 54.21 12.74C55.15 12.74 55.96 12.32 56.63 11.49L56.43 12.60L57.55 12.60L58.69 6.16ZM52.74 9.88C52.74 9.09 53.01 8.42 53.54 7.88C54.08 7.34 54.68 7.07 55.36 7.07C55.82 7.07 56.22 7.22 56.55 7.52C56.88 7.82 57.05 8.25 57.05 8.81C57.05 9.64 56.77 10.32 56.21 10.87C55.65 11.42 55.04 11.69 54.39 11.69C53.90 11.69 53.51 11.54 53.20 11.24C52.89 10.94 52.74 10.49 52.74 9.88ZM60.62 9.93C60.62 9.08 60.88 8.39 61.40 7.87C61.92 7.35 62.53 7.08 63.25 7.08C63.77 7.08 64.21 7.19 64.59 7.41C64.97 7.62 65.20 7.89 65.30 8.20L65.55 6.85C65.38 6.59 65.10 6.39 64.71 6.24C64.32 6.09 63.90 6.02 63.45 6.02C62.35 6.02 61.41 6.39 60.63 7.13C59.86 7.86 59.47 8.81 59.47 9.97C59.47 10.77 59.73 11.43 60.25 11.96C60.77 12.48 61.44 12.74 62.26 12.74C62.72 12.74 63.16 12.67 63.60 12.52C64.04 12.38 64.39 12.18 64.65 11.91L64.89 10.56C64.68 10.87 64.35 11.13 63.88 11.34C63.42 11.55 62.93 11.65 62.41 11.65C61.84 11.65 61.40 11.48 61.09 11.16C60.78 10.83 60.62 10.42 60.62 9.93ZM71.47 8.71L67.58 8.71C67.73 8.21 68.02 7.80 68.46 7.48C68.90 7.16 69.38 7.00 69.90 7.00C70.34 7.00 70.72 7.13 71.03 7.38C71.34 7.64 71.50 7.99 71.50 8.43C71.50 8.48 71.49 8.58 71.47 8.71ZM67.38 9.66L72.45 9.66C72.54 9.29 72.59 8.91 72.59 8.53C72.59 7.82 72.35 7.22 71.87 6.74C71.39 6.26 70.79 6.02 70.07 6.02C69.08 6.02 68.25 6.33 67.57 6.95C66.89 7.57 66.47 8.38 66.29 9.38C66.24 9.66 66.22 9.90 66.22 10.11C66.22 10.90 66.45 11.54 66.91 12.02C67.38 12.50 68.00 12.74 68.80 12.74C69.57 12.74 70.20 12.60 70.69 12.33C71.17 12.06 71.64 11.65 72.10 11.10L71.26 10.47C70.61 11.28 69.85 11.69 68.98 11.69C67.90 11.69 67.37 11.13 67.37 10.00C67.37 9.85 67.37 9.73 67.38 9.66Z"></path></g><!----><g data-v-423bf9ae="" id="cadf4d31-e325-4e56-971d-f0b90428a9d9" transform="matrix(2.8125,0,0,2.8125,0,1.0290013551712036)" stroke="none" fill="#0F5D25"><path d="M0 31.984h32v-32H0v32zm2-30h28v28H2v-28z"></path><path d="M6.439 16.831h8.959l-4.48-7.741zM16.602 13.331h8.959L21.082 5.59zM6.439 26.41h8.959l-4.48-7.741zM16.602 22.91h8.959l-4.479-7.741z"></path></g><!----></svg>